<?xml version="1.0" standalone="no"?>
<!DOCTYPE svg PUBLIC "-//W3C//DTD SVG 20010904//EN"
 "http://www.w3.org/TR/2001/REC-SVG-20010904/DTD/svg10.dtd">
<svg version="1.0" xmlns="http://www.w3.org/2000/svg"
 width="221.000000pt" height="301.000000pt" viewBox="0 0 221.000000 301.000000"
 preserveAspectRatio="xMidYMid meet">

<g transform="translate(0.000000,301.000000) scale(0.100000,-0.100000)"
fill="#000000" stroke="none">
<path d="M31 2953 c-14 -72 -14 -83 2 -83 8 0 13 -13 13 -34 0 -28 -5 -36 -23
-41 -20 -5 -23 -12 -23 -55 0 -28 4 -50 8 -50 4 0 8 -16 8 -35 0 -19 -4 -35
-8 -35 -11 0 -10 -66 2 -115 6 -25 6 -41 0 -43 -6 -2 -10 -151 -10 -383 l0
-379 25 6 c19 5 25 2 25 -9 0 -9 -5 -19 -10 -22 -8 -5 -8 -11 -1 -19 13 -15 4
-26 -21 -26 -14 0 -18 -8 -18 -39 0 -22 4 -42 9 -45 5 -3 5 -25 0 -48 -4 -24
-8 -113 -9 -199 0 -175 -11 -139 111 -359 l64 -115 -1 -79 c-1 -72 -31 -226
-44 -226 -3 0 -13 17 -22 38 -9 20 -37 75 -62 122 l-46 85 0 -179 0 -178 45
-80 45 -80 -10 -69 c-6 -38 -14 -88 -20 -112 -5 -23 -10 -48 -10 -54 0 -10
113 -13 533 -13 l533 0 54 55 c29 30 55 53 57 51 2 -1 -3 -16 -11 -32 -8 -16
-17 -39 -21 -51 l-6 -23 510 0 511 0 0 518 0 518 -28 21 c-16 11 -103 60 -195
108 -174 90 -203 114 -270 222 -29 46 -58 71 -37 33 19 -35 8 -127 -23 -190
-15 -30 -49 -95 -77 -145 -27 -49 -50 -94 -50 -100 0 -5 5 -3 10 5 21 32 8
-10 -36 -115 -83 -201 -112 -279 -155 -417 -23 -76 -45 -136 -47 -133 -2 2 1
49 8 104 11 89 10 105 -5 152 -32 94 2 230 68 277 17 12 26 22 19 22 -6 0 -12
6 -12 13 0 8 -29 41 -64 75 -48 47 -68 60 -84 55 -20 -5 -19 -8 17 -33 39 -29
60 -52 44 -49 -22 4 -24 -3 -7 -23 15 -18 12 -17 -11 3 -17 15 -42 34 -57 44
-15 9 -25 21 -22 26 3 5 -1 6 -9 3 -8 -3 -18 -1 -22 5 -3 6 1 11 9 11 9 0 16
5 16 10 0 16 -18 12 -40 -10 -11 -11 -20 -17 -20 -13 0 4 -27 -19 -60 -52 -33
-33 -60 -63 -60 -67 0 -16 16 -7 53 28 49 47 62 42 58 -27 -3 -78 -25 -142
-70 -209 -34 -52 -101 -212 -101 -242 0 -6 15 8 33 30 17 23 52 56 77 74 25
18 39 25 32 16 -8 -10 -9 -19 -3 -22 5 -4 20 8 32 26 13 17 16 28 8 23 -7 -5
1 8 19 30 22 27 32 50 32 73 0 18 5 43 12 55 l12 22 6 -25 c5 -17 -1 -41 -17
-72 -12 -26 -23 -55 -23 -65 0 -10 -56 -71 -125 -136 -113 -107 -125 -116
-125 -92 0 28 32 271 54 407 6 42 8 74 4 72 -10 -7 -10 -5 7 101 8 50 20 142
25 205 6 63 13 131 16 150 5 30 4 33 -8 18 -17 -22 -401 -178 -438 -178 -8 0
-13 11 -46 103 -17 46 -65 107 -85 107 -5 0 -8 -14 -7 -32 3 -29 1 -31 -32
-32 -40 -1 -51 27 -12 32 12 2 22 7 22 11 0 14 -23 29 -37 24 -12 -5 -13 1 -7
32 4 23 3 40 -4 44 -14 8 -92 171 -92 191 0 21 65 84 78 76 6 -3 14 -52 18
-107 4 -57 10 -95 15 -88 4 7 6 16 3 20 -2 4 0 10 5 13 4 3 9 -15 9 -41 2 -55
4 -58 32 -43 53 28 158 -48 180 -131 17 -63 24 -38 10 35 -7 37 -18 67 -26 70
-19 7 -18 33 1 44 12 6 14 17 7 48 -6 33 -14 43 -55 64 -40 21 -47 29 -45 50
3 21 9 25 36 26 18 1 34 3 36 5 4 4 -20 209 -28 239 -3 11 -6 9 -11 -6 -9 -30
-42 -20 -48 14 -7 37 21 57 47 34 18 -16 18 -16 12 23 -3 22 -13 121 -21 220
-8 99 -20 221 -26 270 -12 96 -7 200 10 250 6 17 10 37 9 45 -1 8 0 52 0 98 2
65 5 82 17 82 12 0 11 4 -5 20 -22 22 -26 40 -10 40 6 0 10 5 10 10 0 7 -37
10 -102 8 l-103 -3 -11 -90 c-6 -49 -18 -110 -27 -134 -10 -24 -17 -52 -17
-62 0 -11 -4 -19 -9 -19 -12 0 -21 25 -21 56 0 21 -4 24 -20 19 -15 -5 -20 -2
-20 13 0 11 -6 22 -12 25 -10 3 -9 12 5 35 11 20 17 51 17 96 0 60 -2 66 -21
66 -12 0 -17 -4 -14 -11 6 -9 -21 -38 -36 -39 -4 0 -10 11 -13 25 -6 22 -12
25 -50 25 l-43 0 -12 -57z m104 -83 c3 -5 12 -7 20 -4 12 5 14 0 8 -27 -11
-55 -46 -78 -56 -38 -12 44 10 98 28 69z m3 -170 c4 0 7 -13 8 -28 1 -20 -6
-31 -23 -39 -21 -10 -25 -9 -32 10 -10 28 8 70 27 62 7 -3 17 -5 20 -5z m102
-14 c0 -8 -5 -18 -10 -21 -7 -4 -7 -13 0 -26 9 -16 7 -19 -10 -19 -16 0 -20 6
-20 34 0 31 9 43 33 45 4 1 7 -5 7 -13z m-120 -154 c0 -4 -5 -13 -12 -20 -8
-8 -8 -15 1 -26 14 -16 -1 -31 -23 -23 -16 7 -18 59 -2 69 15 10 36 10 36 0z
m83 -6 c9 -7 17 -21 17 -30 0 -20 14 -21 30 -1 17 20 22 14 27 -35 4 -32 2
-40 -11 -40 -9 0 -16 8 -16 20 0 25 -36 27 -61 4 -17 -16 -19 -15 -29 11 -8
20 -7 35 2 56 15 33 16 33 41 15z m70 -172 c10 -4 17 -14 15 -23 -1 -9 1 -22
5 -28 11 -17 0 -33 -17 -27 -8 3 -17 0 -21 -5 -13 -22 -25 1 -25 50 0 37 3 49
13 45 6 -3 20 -9 30 -12z m-101 -22 c-7 -5 -10 -16 -6 -25 8 -22 -22 -23 -43
-1 -14 13 -14 17 -2 25 8 5 25 9 39 9 17 0 21 -3 12 -8z m-43 -152 c10 -34 9
-42 -6 -59 -17 -20 -39 -19 -27 1 4 6 -1 17 -11 24 -17 13 -17 15 -2 32 9 10
17 24 17 30 0 27 18 9 29 -28z m121 -19 c0 -11 2 -26 5 -33 4 -9 -4 -19 -20
-26 -22 -10 -25 -9 -25 8 0 10 -4 21 -10 25 -11 7 19 45 37 45 7 0 13 -9 13
-19z m-170 -122 c0 -6 9 -9 20 -6 24 6 36 -9 20 -28 -7 -9 -8 -15 0 -20 17
-11 12 -38 -6 -31 -9 4 -23 1 -30 -5 -15 -12 -34 -4 -34 16 0 7 -6 15 -12 18
-10 3 -8 9 5 24 9 11 17 25 17 31 0 7 5 12 10 12 6 0 10 -5 10 -11z m120 -9
c0 -5 8 -10 18 -10 14 0 18 -8 19 -36 1 -22 -3 -34 -10 -31 -7 2 -20 -2 -29
-11 -16 -13 -18 -12 -28 13 -8 20 -7 35 2 56 13 28 28 39 28 19z m121 -23 c9
-7 18 -25 21 -41 5 -22 2 -30 -13 -33 -11 -3 -19 -9 -19 -14 0 -5 -7 -9 -16
-9 -10 0 -14 5 -10 15 3 9 -1 18 -9 21 -19 8 -19 30 0 38 8 3 15 12 15 21 0
18 9 19 31 2z m147 -59 c6 -7 8 -25 5 -39 -4 -21 -9 -25 -29 -21 -26 5 -33 39
-12 60 15 15 23 15 36 0z m-418 -69 c0 -6 8 -9 19 -6 15 4 18 -1 18 -34 0 -25
-4 -39 -13 -39 -7 0 -18 -2 -26 -5 -15 -6 -41 42 -27 51 5 3 9 14 9 25 0 10 5
19 10 19 6 0 10 -5 10 -11z m133 -59 c-6 -22 -25 -31 -43 -20 -10 6 -10 13 0
37 12 27 15 28 30 15 10 -8 15 -22 13 -32z m126 30 c13 0 16 -9 16 -40 0 -35
-2 -40 -22 -40 -13 0 -26 -1 -30 -2 -3 -2 -8 19 -10 46 -4 42 -2 48 12 42 9
-3 24 -6 34 -6z m-155 -146 c10 -26 7 -69 -6 -82 -15 -15 -28 -15 -28 0 0 6
-7 20 -16 30 -16 16 -16 18 0 24 9 3 16 15 16 25 0 23 25 25 34 3z m369 -191
c9 -9 -13 -34 -24 -27 -14 8 -11 34 4 34 8 0 17 -3 20 -7z m57 -33 c0 -11 -6
-20 -14 -20 -18 0 -29 16 -21 30 11 18 35 11 35 -10z m-399 -3 c23 -18 94
-152 117 -222 11 -33 31 -85 45 -115 l26 -55 0 43 1 42 39 0 c31 0 44 6 60 26
12 15 21 33 21 40 0 8 4 14 8 14 20 0 41 -39 44 -78 l3 -43 -80 -34 c-96 -40
-151 -70 -186 -102 l-26 -24 -22 50 c-11 27 -21 56 -21 63 -1 7 -12 31 -25 53
-14 22 -50 90 -81 151 l-55 112 48 46 c51 49 59 52 84 33z m224 -237 c-4 -11
-2 -20 4 -20 6 0 11 -5 11 -11 0 -6 -10 -9 -21 -7 -30 4 -37 58 -8 58 16 0 19
-5 14 -20z m55 -20 c0 -5 -4 -10 -10 -10 -5 0 -10 5 -10 10 0 6 5 10 10 10 6
0 10 -4 10 -10z m687 -262 c-3 -8 -6 -5 -6 6 -1 11 2 17 5 13 3 -3 4 -12 1
-19z m26 -166 c23 -21 21 -32 -5 -32 -34 0 -48 13 -41 38 5 22 14 21 46 -6z
m443 -247 c6 -2 9 -14 7 -28 -5 -23 -7 -23 -55 -16 -60 10 -59 9 -52 36 5 18
11 20 47 16 23 -3 47 -6 53 -8z m-429 -47 c-3 -8 -6 -5 -6 6 -1 11 2 17 5 13
3 -3 4 -12 1 -19z m98 -33 c-1 -23 -14 -49 -41 -82 -36 -44 -313 -335 -324
-341 -3 -1 -5 12 -4 30 1 27 23 54 138 175 76 78 142 141 146 138 5 -3 11 -1
15 5 4 6 10 8 14 6 4 -3 8 1 8 9 0 12 -4 12 -20 -2 -15 -13 -18 -14 -12 -3 8
13 77 100 80 100 1 0 1 -16 0 -35z"/>
<path d="M1261 457 c-8 -10 -7 -14 2 -14 8 0 14 6 14 14 0 7 -1 13 -2 13 -2 0
-8 -6 -14 -13z"/>
<path d="M1188 2650 c-131 -50 -244 -149 -295 -260 -56 -121 -66 -262 -26
-366 5 -12 1 -13 -21 -3 -20 9 -29 9 -41 -1 -20 -17 -20 -99 0 -136 l16 -29
-7 38 c-3 20 -3 58 1 83 6 42 8 44 23 31 9 -7 24 -17 33 -20 29 -10 31 -61 3
-112 -22 -42 -23 -51 -12 -76 12 -27 35 -45 45 -35 3 2 0 13 -6 25 -8 14 -8
32 0 63 8 30 9 71 2 135 -6 65 -5 99 2 113 6 11 14 18 17 15 3 -3 6 6 6 20 0
24 30 70 40 61 2 -3 10 0 17 7 8 8 9 22 4 46 -5 22 -4 40 3 48 5 7 8 20 4 28
-3 8 1 23 9 33 8 9 21 26 30 37 l15 20 -7 -20 c-6 -19 -6 -19 13 -3 11 10 40
20 64 23 23 3 46 8 51 10 4 3 10 1 14 -5 3 -5 17 -7 31 -4 14 4 24 2 24 -4 0
-6 8 -12 17 -14 10 -2 18 -12 18 -23 0 -11 5 -20 12 -20 6 0 14 -3 18 -7 4 -4
13 -4 21 -1 10 4 12 0 8 -11 -3 -9 -1 -23 6 -31 6 -8 9 -18 6 -24 -3 -5 -2
-11 3 -13 4 -1 12 -13 15 -25 6 -18 3 -23 -11 -24 -10 0 -13 -3 -6 -5 7 -3 9
-12 6 -19 -3 -9 8 -21 31 -32 20 -9 36 -24 36 -32 0 -31 -12 -61 -22 -55 -5 3
-16 -3 -24 -15 -18 -26 -34 -27 -34 -3 0 12 -3 13 -8 4 -5 -6 -8 -65 -7 -130
1 -64 -2 -120 -7 -123 -5 -3 -5 -16 1 -30 12 -32 3 -79 -15 -79 -13 0 -19 -13
-14 -35 1 -5 -7 -2 -18 8 -18 17 -63 23 -75 10 -9 -8 12 -33 27 -33 6 0 4 5
-4 10 -11 7 -7 10 18 10 31 0 32 -1 32 -45 0 -29 -4 -45 -12 -45 -10 0 -10 -2
0 -9 10 -6 -2 -13 -37 -25 -70 -23 -101 -21 -96 4 2 11 0 22 -6 25 -5 4 -9 -2
-10 -12 0 -10 -3 -30 -5 -45 -5 -32 9 -44 29 -23 14 13 20 12 59 -10 52 -30
58 -31 58 -5 0 11 5 20 12 20 6 0 9 -3 5 -6 -3 -4 1 -14 10 -22 15 -15 15 -17
-3 -22 -24 -6 -30 -36 -9 -44 9 -3 13 -2 10 4 -3 5 0 7 8 4 28 -10 15 -34 -19
-34 -39 0 -54 -16 -16 -17 54 -1 62 -3 62 -14 0 -5 -4 -8 -9 -5 -5 3 -11 -6
-14 -19 -2 -14 0 -28 6 -32 5 -3 7 -1 4 4 -4 6 0 16 7 22 12 10 13 8 9 -9 -3
-12 -16 -26 -29 -32 -13 -6 -21 -14 -19 -18 2 -4 -2 -7 -10 -7 -8 0 -11 5 -8
10 4 6 -4 7 -21 3 -29 -7 -72 14 -58 29 4 5 2 5 -4 2 -7 -4 -17 6 -24 24 -7
16 -20 35 -29 42 -31 23 -71 79 -65 89 4 7 2 8 -4 4 -7 -4 -12 -2 -12 4 0 7
-9 23 -20 37 -26 34 -25 17 3 -28 71 -116 186 -249 217 -249 5 0 10 -7 10 -16
0 -14 3 -14 15 -4 24 20 41 -2 20 -24 -10 -9 -15 -25 -12 -36 3 -14 0 -20 -10
-20 -12 0 -14 -7 -10 -29 5 -25 3 -28 -14 -24 -28 8 -106 98 -139 163 -16 30
-29 49 -30 42 -1 -39 106 -196 152 -220 21 -12 36 -4 183 94 234 155 257 180
266 289 8 94 72 252 102 251 25 -1 67 71 101 174 20 64 23 83 15 125 -12 62
-21 72 -55 56 -25 -11 -26 -11 -20 13 3 14 6 70 7 123 0 156 -32 242 -128 335
-115 114 -193 148 -348 153 -78 2 -111 -1 -147 -15z m261 -404 c-3 -3 -11 5
-18 17 -13 21 -12 21 5 5 10 -10 16 -20 13 -22z m-39 14 c0 -5 -2 -10 -4 -10
-3 0 -8 5 -11 10 -3 6 -1 10 4 10 6 0 11 -4 11 -10z m70 -290 c0 -5 -7 -10
-16 -10 -8 0 -12 5 -9 10 3 6 10 10 16 10 5 0 9 -4 9 -10z m367 -82 c-3 -7 -5
-2 -5 12 0 14 2 19 5 13 2 -7 2 -19 0 -25z m-314 -220 c6 -22 5 -22 -8 -4 -17
22 -20 40 -6 32 5 -3 11 -16 14 -28z m-192 -28 c1 -5 1 -19 1 -30 0 -41 -1
-45 -14 -32 -12 12 -19 51 -11 65 6 10 23 9 24 -3z"/>
<path d="M957 2183 c-4 -3 -7 -11 -7 -17 0 -6 5 -5 12 2 6 6 9 14 7 17 -3 3
-9 2 -12 -2z"/>
<path d="M1070 2052 c-41 -4 -90 -37 -90 -61 0 -9 -6 -23 -12 -31 -7 -7 3 -4
23 8 20 12 39 19 42 15 4 -3 7 -2 7 3 0 6 21 11 48 12 l47 1 -48 -13 c-43 -12
-80 -35 -99 -61 -11 -15 -3 -16 41 -6 28 6 53 5 77 -2 35 -11 35 -11 12 -24
-24 -14 -24 -14 77 1 12 2 19 10 17 20 -3 19 14 22 21 4 10 -30 19 5 9 38 -9
31 -8 38 9 55 11 11 19 25 17 31 -4 11 -125 17 -198 10z m25 -102 c3 -5 -1
-10 -9 -10 -9 0 -16 5 -16 10 0 6 4 10 9 10 6 0 13 -4 16 -10z m125 6 c0 -3
-4 -8 -10 -11 -5 -3 -10 -1 -10 4 0 6 5 11 10 11 6 0 10 -2 10 -4z"/>
<path d="M920 1790 c0 -5 5 -10 10 -10 6 0 10 5 10 10 0 6 -4 10 -10 10 -5 0
-10 -4 -10 -10z"/>
<path d="M1168 1736 c-9 -6 -26 -32 -39 -56 -12 -25 -31 -58 -42 -73 -19 -28
-20 -77 -2 -147 6 -24 6 -24 -9 -6 -9 11 -16 16 -16 10 0 -5 11 -22 25 -39 19
-23 24 -26 25 -12 0 9 -3 17 -7 17 -5 0 -9 32 -11 71 -3 70 -2 72 48 156 28
47 50 87 48 88 -2 2 -10 -2 -20 -9z"/>
<path d="M923 1695 c-6 -14 -7 -25 -2 -25 11 0 22 25 17 39 -1 6 -8 -1 -15
-14z"/>
<path d="M440 1399 c0 -11 5 -17 10 -14 6 3 10 13 10 21 0 8 -4 14 -10 14 -5
0 -10 -9 -10 -21z"/>
<path d="M1052 1315 c0 -16 2 -22 5 -12 2 9 2 23 0 30 -3 6 -5 -1 -5 -18z"/>
<path d="M555 1320 c3 -5 8 -10 11 -10 2 0 4 5 4 10 0 6 -5 10 -11 10 -5 0 -7
-4 -4 -10z"/>
<path d="M1069 528 c0 -2 -2 -11 -4 -21 -3 -15 -1 -16 11 -6 7 6 11 15 8 20
-5 9 -13 12 -15 7z"/>
</g>
</svg>
